# xmcd
#
# Track frame offsets:
#	150
#	11763
#	22177
#	34841
#	44771
#	57153
#	66727
#	77107
#	87489
#	96542
#	106928
#	115623
#	123970
#	134840
#	144062
#	154025
#	163416
#	172011
#	181693
#	190109
#
# Disc length: 2657 seconds
#
# Revision: 1
# Processed by: cddbd v1.5.1PL0 Copyright (c) Steve Scherf et al.
# Submitted via: audiograbber 1.83.01
#
DISCID=210a5f14
DTITLE=Rusty and Doug Kershaw - Greatest Hits
DYEAR=2002
DGENRE=Honky Tonk and Rockabilly
TTITLE0=Louisiana Man
TTITLE1=So Lovely Baby
TTITLE2=Can I Be Dreaming
TTITLE3=Honey Honey
TTITLE4=Going Down The Road
TTITLE5=You'll See
TTITLE6=I Never Had The Blues
TTITLE7=Love Me To Pieces
TTITLE8=Take My Love
TTITLE9=Hey Mae
TTITLE10=Why Don't You Love Me
TTITLE11=Sweet Thing
TTITLE12=Hey, Sheriff
TTITLE13=We'll Do It Anyway
TTITLE14=Never Love Again
TTITLE15=Diggy Liggy Lo
TTITLE16=Cheated Too
TTITLE17=Cajun Joe (Bully of the Bayou)
TTITLE18=Sweet Sweet Girl To Me
TTITLE19=(Our Own) Jole Blon
EXTD=
EXTT0=
EXTT1=
EXTT2=
EXTT3=
EXTT4=
EXTT5=
EXTT6=
EXTT7=
EXTT8=
EXTT9=
EXTT10=
EXTT11=
EXTT12=
EXTT13=
EXTT14=
EXTT15=
EXTT16=
EXTT17=
EXTT18=
EXTT19=
PLAYORDER=
